<svg width="646" height="96" viewBox="0 0 646 96" fill="none" xmlns="http://www.w3.org/2000/svg">
  <g clip-path="url(#clip0_1064_606)">
    <path d="M108.53 75.6899L90.81 94.6899C90.4267 95.1026 89.9626 95.432 89.4464 95.6573C88.9303 95.8827 88.3732 95.9994 87.81 95.9999H3.81C3.40937 95.9999 3.01749 95.8917 2.68235 95.6849C2.34722 95.4781 2.08338 95.1806 1.92313 94.8283C1.76288 94.4759 1.71318 94.0846 1.78012 93.7072C1.84706 93.3298 2.02772 92.9822 2.3 92.7099L20 73.7099C20.3833 73.2973 20.8474 72.9678 21.3636 72.7425C21.8797 72.5171 22.4368 72.4004 23 72.3999H107C107.404 72.3999 107.798 72.5091 108.135 72.7176C108.472 72.926 108.737 73.2253 108.897 73.5796C109.057 73.9338 109.106 74.327 109.037 74.706C108.968 75.0851 108.784 75.4334 108.51 75.7049L108.53 75.6899ZM90.81 37.6899C90.4253 37.2783 89.9608 36.9498 89.445 36.7251C88.9292 36.5003 88.3728 36.3838 87.81 36.3833H3.81C3.40937 36.3833 3.01749 36.4914 2.68235 36.6983C2.34722 36.9051 2.08338 37.2025 1.92313 37.5549C1.76288 37.9073 1.71318 38.2985 1.78012 38.676C1.84706 39.0534 2.02772 39.401 2.3 39.6733L20 58.6733C20.3833 59.0859 20.8474 59.4154 21.3636 59.6407C21.8797 59.8661 22.4368 59.9828 23 59.9833H107C107.404 59.9833 107.798 59.8741 108.135 59.6656C108.472 59.4572 108.737 59.1579 108.897 58.8037C109.057 58.4494 109.106 58.0563 109.037 57.6772C108.968 57.2982 108.784 56.9499 108.51 56.6783L90.81 37.6899ZM3.81 23.9833H87.81C88.3732 23.9838 88.9303 23.8671 89.4464 23.6417C89.9626 23.4164 90.4267 23.087 90.81 22.6743L108.53 3.67427C108.784 3.40274 108.968 3.05441 109.037 2.67537C109.106 2.29633 109.057 1.90317 108.897 1.54891C108.737 1.19465 108.472 0.895341 108.135 0.686912C107.798 0.478483 107.404 0.369308 107 0.369308H23C22.4368 0.369817 21.8797 0.486532 21.3636 0.711864C20.8474 0.937195 20.3833 1.26667 20 1.67927L2.3 20.6793C2.02772 20.9516 1.84706 21.2992 1.78012 21.6766C1.71318 22.054 1.76288 22.4453 1.92313 22.7977C2.08338 23.15 2.34722 23.4475 2.68235 23.6543C3.01749 23.8611 3.40937 23.9693 3.81 23.9693V23.9833Z" fill="url(#paint0_linear_1064_606)"/>
  </g>
  <defs>
    <linearGradient id="paint0_linear_1064_606" x1="10.81" y1="98.29" x2="98.89" y2="-1.01002" gradientUnits="userSpaceOnUse">
      <stop offset="0" stop-color="#00FFA3"/>
      <stop offset="1" stop-color="#DC1FFF"/>
    </linearGradient>
    <clipPath id="clip0_1064_606">
      <rect width="646" height="96" fill="white"/>
    </clipPath>
  </defs>
</svg> 